HIERARCHY
ROOT Hips
{
	OFFSET 0.000000 0.000000 0.000000
	CHANNELS 6 Xposition Yposition Zposition Zrotation Yrotation Xrotation 
	JOINT LHipJoint
	{
		OFFSET 0.000000 0.000000 0.000000
		CHANNELS 3 Zrotation Yrotation Xrotation
		JOINT LeftUpLeg
		{
			OFFSET 1.363060 -1.794630 0.839290
			CHANNELS 3 Zrotation Yrotation Xrotation
			JOINT LeftLeg
			{
				OFFSET 2.448110 -6.726130 0.000000
				CHANNELS 3 Zrotation Yrotation Xrotation
				JOINT LeftFoot
				{
					OFFSET 2.562200 -7.039590 0.000000
					CHANNELS 3 Zrotation Yrotation Xrotation
					JOINT LeftToeBase
					{
						OFFSET 0.157640 -0.433110 2.322550
						CHANNELS 3 Zrotation Yrotation Xrotation
						End Site
						{
							OFFSET 0.000000 0.000000 0.000000
						}
					}
				}
			}
		}
	}
	JOINT RHipJoint
	{
		OFFSET 0.000000 0.000000 0.000000
		CHANNELS 3 Zrotation Yrotation Xrotation
		JOINT RightUpLeg
		{
			OFFSET -1.305520 -1.794630 0.839290
			CHANNELS 3 Zrotation Yrotation Xrotation
			JOINT RightLeg
			{
				OFFSET -2.542530 -6.985550 0.000000
				CHANNELS 3 Zrotation Yrotation Xrotation
				JOINT RightFoot
				{
					OFFSET -2.568260 -7.056230 0.000000
					CHANNELS 3 Zrotation Yrotation Xrotation
					JOINT RightToeBase
					{
						OFFSET -0.164730 -0.452590 2.363150
						CHANNELS 3 Zrotation Yrotation Xrotation
						End Site
						{
							OFFSET 0.000000 0.000000 0.000000
						}
					}
				}
			}
		}
	}
}
MOTION
Frames: 19
Frame Time: 0.008333
-4.165719 16.872054 0.759966 -61.303929 87.517364 -54.501109 -9.376491 1.243280 0.216781 -20.227754 16.321247 -34.463966 -3.304035 -0.563795 8.826241 1.176879 8.054884 0.843526 1.600800 0.000000 -8.278700 10.160251 -3.586115 -0.701605 3.616111 -11.097936 3.736259 2.461459 -1.008195 19.155681 0.766621 8.472149 -4.675363 0.241400 0.000001 -69.960900
-4.016536 16.886260 0.726100 -71.990093 88.095828 -65.282488 -9.341972 1.309030 0.358480 -20.306051 15.415389 -33.756619 -3.263119 -0.545390 9.385588 1.170003 8.017505 0.610875 1.556000 -0.000000 -6.544800 10.375186 -3.701794 -0.794749 2.638093 -11.823182 2.869189 2.287125 -1.306279 21.594996 0.830393 9.179035 -3.330895 0.425300 -0.000000 -72.695400
-3.870807 16.902127 0.692028 -106.646799 88.893906 -100.005768 -9.578473 1.228271 0.501791 -20.507594 14.332273 -32.916865 -3.185180 -0.562798 9.835826 1.176181 8.110019 0.339434 1.524600 0.000000 -5.169200 10.336674 -3.925549 -0.908225 1.557435 -12.570134 1.863912 2.144610 -1.665799 24.193176 0.868616 9.863539 -1.760875 0.686700 0.000000 -75.366201
-3.728741 16.919018 0.655394 15.139815 89.908728 21.734542 -10.036969 1.553191 0.791479 -20.755754 13.338041 -32.297111 -3.169151 -0.408960 10.041954 1.299728 8.503312 -0.115812 1.492001 0.000000 -4.158700 9.969066 -3.584038 -1.097474 0.367832 -12.865933 0.840103 1.773402 -1.814382 27.125475 0.913828 10.577891 0.085569 1.028900 0.000000 -77.783200
-3.591140 16.936014 0.617111 -6.694224 89.907254 -0.125411 -9.672663 1.884882 0.993364 -20.733203 12.336285 -31.629028 -3.181430 -0.342945 10.319728 1.395986 8.843125 -0.634378 1.459300 0.000000 -3.489300 10.440502 -3.306522 -1.171688 -0.351429 -13.099808 -0.356201 1.353578 -1.961729 30.069519 0.903272 11.106578 2.177829 1.451600 0.000000 -79.802800
-3.458185 16.952491 0.576451 167.030520 89.586044 173.624646 -9.492396 1.989168 1.138144 -20.762457 11.330610 -30.912420 -3.150239 -0.342571 10.588518 1.468177 9.153768 -1.158810 1.416500 -0.000000 -3.114000 10.742900 -3.244532 -1.211071 -0.923478 -13.245774 -1.690294 1.015208 -2.186414 33.034584 0.839978 11.443012 4.411828 1.938200 0.000000 -81.258100
-3.330189 16.967764 0.534727 164.268979 89.016222 170.907063 -9.386593 2.049480 1.253659 -20.848535 10.412179 -30.177180 -3.117537 -0.354880 10.762936 1.540534 9.471153 -1.689757 1.366000 0.000000 -2.962800 10.964370 -3.187837 -1.235617 -1.422167 -13.232933 -3.101758 0.683349 -2.403925 36.059232 0.739901 11.661347 6.736757 2.468401 -0.000000 -82.041800
-3.206930 16.981545 0.491318 163.422153 88.445961 170.122569 -9.329970 2.084648 1.336441 -20.958752 9.645043 -29.468520 -3.090824 -0.372438 10.871681 1.603306 9.726267 -2.226468 1.298400 -0.000000 -2.963200 11.125951 -3.122621 -1.237118 -1.799264 -13.034511 -4.572104 0.361936 -2.602109 39.102891 0.608070 11.731771 9.069565 3.001100 0.000000 -82.086900
-3.088169 16.993675 0.446684 163.336897 87.894538 170.107350 -9.299842 2.105327 1.382170 -21.092070 9.056772 -28.779701 -3.075685 -0.394391 10.911666 1.648225 9.877770 -2.749189 1.214100 -0.000000 -3.040800 11.251800 -3.044796 -1.216479 -2.071640 -12.671929 -6.078148 0.058440 -2.778713 42.131806 0.452743 11.650084 11.314326 3.491701 0.000000 -81.425900
-2.973529 17.004204 0.401241 163.547004 87.367666 170.384832 -9.286721 2.117516 1.389047 -21.248241 8.659568 -28.101660 -3.075297 -0.419896 10.882031 1.668316 9.892032 -3.240893 1.115300 0.000000 -3.129199 11.353054 -2.955043 -1.177759 -2.262735 -12.174345 -7.594909 -0.220600 -2.935789 45.111835 0.283261 11.403070 13.374188 3.892800 -0.000000 -80.177600
-2.862476 17.013415 0.355066 163.968388 86.864788 170.865359 -9.289011 2.124271 1.359439 -21.417389 8.451792 -27.435021 -3.090149 -0.447509 10.792596 1.658780 9.744047 -3.691930 1.004900 -0.000000 -3.176300 11.432746 -2.857454 -1.124587 -2.383358 -11.569693 -9.103900 -0.472059 -3.077123 48.009598 0.108245 10.964813 15.164619 4.157800 0.000000 -78.523000
-2.754535 17.021695 0.308471 164.445577 86.379352 171.386026 -9.301865 2.128875 1.297915 -21.595640 8.409474 -26.765129 -3.119529 -0.476812 10.641925 1.619130 9.433939 -4.090083 0.889400 -0.000000 -3.145800 11.497249 -2.753423 -1.063245 -2.458627 -10.891601 -10.584862 -0.697365 -3.207023 50.795495 -0.065752 10.314846 16.622296 4.252300 -0.000000 -76.669400
-2.649208 17.029492 0.261438 165.012391 85.901463 171.979238 -9.324630 2.131985 1.211864 -21.769174 8.498874 -26.088192 -3.160303 -0.507005 10.439176 1.551565 8.972325 -4.431559 0.774201 -0.000000 -3.024400 11.548125 -2.645792 -0.998320 -2.496188 -10.167214 -12.024510 -0.899844 -3.328829 53.441581 -0.235021 9.431779 17.707172 4.154800 -0.000000 -74.800500
-2.545923 17.037261 0.213812 165.750150 85.416865 172.730301 -9.357017 2.132810 1.111720 -21.920935 8.673586 -25.407516 -3.207839 -0.537594 10.198480 1.461151 8.382842 -4.719403 0.663600 -0.000000 -2.815400 11.585776 -2.537085 -0.932717 -2.495078 -9.420020 -13.418620 -1.083444 -3.444354 55.924740 -0.398448 8.304668 18.401370 3.861099 0.000000 -73.036300
-2.444439 17.045401 0.165738 166.603949 84.908893 173.582960 -9.395324 2.131174 1.005957 -22.043099 8.880309 -24.704061 -3.257325 -0.569163 9.915780 1.355773 7.709397 -4.950641 0.563300 0.000000 -2.539700 11.613657 -2.426211 -0.871695 -2.469238 -8.672632 -14.753421 -1.251741 -3.554500 58.222134 -0.556798 6.945128 18.709379 3.389000 0.000000 -71.442400
-2.344283 17.054157 0.116966 167.652183 84.359664 174.625904 -9.438777 2.125259 0.906608 -22.119986 9.064927 -23.984972 -3.303335 -0.601915 9.604113 1.243422 6.992396 -5.135534 0.475000 -0.000000 -2.226600 11.631068 -2.314289 -0.815399 -2.410282 -7.939305 -16.033724 -1.406437 -3.658305 60.315953 -0.711879 5.376452 18.652027 2.770500 -0.000001 -70.003700
-2.245300 17.063667 0.067507 168.853183 83.753125 175.821012 -9.484292 2.114229 0.821208 -22.146063 9.180502 -23.239520 -3.341573 -0.636517 9.261919 1.131956 6.277001 -5.279711 0.400100 -0.000000 -1.910300 11.639465 -2.199847 -0.766274 -2.323704 -7.232286 -17.254309 -1.547961 -3.754608 62.189813 -0.865601 3.644593 18.266808 2.052800 0.000000 -68.669500
-2.147323 17.073863 0.017339 170.174387 83.075245 177.141474 -9.529634 2.097447 0.756344 -22.118012 9.190009 -22.465054 -3.368852 -0.673352 8.890853 1.027553 5.599805 -5.391663 0.338400 0.000000 -1.622600 11.639153 -2.082041 -0.724553 -2.211189 -6.558131 -18.414905 -1.675436 -3.841582 63.830939 -1.019396 1.808369 17.606146 1.288800 0.000000 -67.367199
-2.050193 17.084629 -0.033568 171.573785 82.315435 178.552537 -9.573223 2.074871 0.717030 -22.035732 9.070222 -21.666745 -3.383602 -0.712484 8.495435 0.934114 4.984828 -5.481464 0.288500 0.000000 -1.387900 11.629921 -1.960485 -0.688159 -2.073714 -5.917974 -19.520725 -1.787334 -3.917041 65.231178 -1.173668 -0.065674 16.733995 0.530400 -0.000000 -66.028000
